<svg width="634" height="508" viewBox="0 0 634 508" fill="none" xmlns="http://www.w3.org/2000/svg">
<path d="M592.9 476.555C584.12 485.992 574.06 494.14 563.016 500.76C562.762 500.916 562.505 501.063 562.246 501.215L544.367 485.328C544.555 485.153 544.763 484.956 544.987 484.74C558.309 472.04 624.445 383.246 628.852 361.624C628.548 363.425 632.829 434.069 592.9 476.555Z" fill="#F0F0F0"/>
<path d="M566.466 503.825C566.127 503.906 565.783 503.982 565.438 504.051L552.025 492.132C552.287 492.04 552.593 491.931 552.944 491.81C558.699 489.764 575.84 483.588 592.898 476.554C611.228 468.992 629.469 460.448 633.392 454.975C632.551 456.247 606.628 494.809 566.466 503.825Z" fill="#F0F0F0"/>
<path d="M592.652 241.545H590.742V189.01C590.742 185.017 589.958 181.063 588.436 177.374C586.914 173.685 584.683 170.333 581.871 167.509C579.058 164.686 575.72 162.446 572.045 160.918C568.37 159.39 564.432 158.604 560.455 158.604H449.588C445.61 158.604 441.672 159.39 437.997 160.918C434.323 162.446 430.984 164.686 428.172 167.509C425.359 170.333 423.128 173.685 421.606 177.374C420.084 181.063 419.301 185.017 419.301 189.01V477.222C419.301 481.215 420.084 485.169 421.606 488.858C423.128 492.547 425.359 495.899 428.171 498.722C430.984 501.546 434.323 503.785 437.997 505.313C441.672 506.841 445.61 507.628 449.588 507.628H560.455C564.432 507.628 568.37 506.841 572.045 505.313C575.719 503.785 579.058 501.546 581.871 498.722C584.683 495.899 586.914 492.547 588.436 488.858C589.958 485.169 590.742 481.215 590.742 477.222V278.94H592.652V241.545Z" fill="#0F172A"/>
<path d="M584.295 189.219V477.011C584.295 479.993 583.709 482.946 582.572 485.701C581.436 488.456 579.769 490.959 577.668 493.067C575.568 495.175 573.074 496.847 570.329 497.988C567.585 499.128 564.643 499.714 561.673 499.713H450.272C447.303 499.714 444.362 499.127 441.618 497.986C438.875 496.845 436.382 495.173 434.282 493.065C432.182 490.956 430.516 488.454 429.38 485.699C428.243 482.945 427.659 479.993 427.659 477.011V189.219C427.659 186.237 428.243 183.285 429.38 180.531C430.516 177.776 432.182 175.273 434.282 173.165C436.382 171.057 438.875 169.385 441.618 168.244C444.362 167.103 447.303 166.516 450.272 166.516H463.791C463.128 168.155 462.875 169.931 463.056 171.69C463.237 173.449 463.846 175.137 464.828 176.604C465.811 178.072 467.138 179.275 468.693 180.107C470.247 180.938 471.981 181.374 473.743 181.375H537.256C539.018 181.377 540.754 180.943 542.31 180.112C543.866 179.281 545.194 178.078 546.178 176.61C547.161 175.141 547.77 173.452 547.949 171.692C548.129 169.932 547.874 168.154 547.207 166.516H561.673C564.643 166.515 567.585 167.102 570.329 168.242C573.074 169.383 575.568 171.055 577.668 173.163C579.769 175.271 581.436 177.774 582.572 180.529C583.709 183.284 584.295 186.237 584.295 189.219Z" fill="#F8FAFC"/>
<path d="M549.642 338.771H451.724C450.009 338.769 448.364 338.084 447.152 336.867C445.939 335.649 445.257 333.998 445.255 332.277V329.044C445.257 327.322 445.939 325.672 447.152 324.454C448.364 323.236 450.009 322.552 451.724 322.55H549.642C551.357 322.552 553.001 323.236 554.214 324.454C555.427 325.672 556.109 327.322 556.111 329.044V332.277C556.109 333.998 555.427 335.649 554.214 336.867C553.001 338.084 551.357 338.769 549.642 338.771Z" fill="#F0F0F0"/>
<path d="M549.642 366.636H451.724C450.009 366.635 448.364 365.95 447.152 364.732C445.939 363.515 445.257 361.864 445.255 360.142V356.91C445.257 355.188 445.939 353.537 447.152 352.319C448.364 351.102 450.009 350.417 451.724 350.415H549.642C551.357 350.417 553.001 351.102 554.214 352.319C555.427 353.537 556.109 355.188 556.111 356.91V360.142C556.109 361.864 555.427 363.515 554.214 364.732C553.001 365.95 551.357 366.635 549.642 366.636Z" fill="#F0F0F0"/>
<path d="M554.54 332.539H456.622C454.821 332.537 453.095 331.818 451.821 330.539C450.548 329.261 449.832 327.528 449.829 325.72V322.487C449.832 320.679 450.548 318.946 451.821 317.668C453.095 316.389 454.821 315.67 456.622 315.668H554.54C556.341 315.67 558.067 316.389 559.34 317.668C560.614 318.946 561.33 320.679 561.332 322.487V325.72C561.33 327.528 560.614 329.261 559.34 330.539C558.067 331.818 556.341 332.537 554.54 332.539ZM456.622 316.967C455.164 316.969 453.766 317.551 452.736 318.586C451.705 319.621 451.125 321.024 451.123 322.487V325.72C451.125 327.183 451.705 328.587 452.736 329.621C453.766 330.656 455.164 331.238 456.622 331.24H554.54C555.998 331.238 557.395 330.656 558.426 329.621C559.457 328.587 560.037 327.183 560.038 325.72V322.487C560.037 321.024 559.457 319.621 558.426 318.586C557.395 317.551 555.998 316.969 554.54 316.967H456.622Z" fill="#0F172A"/>
<path d="M554.54 360.404H456.622C454.821 360.402 453.095 359.683 451.821 358.405C450.548 357.126 449.832 355.393 449.829 353.585V350.353C449.832 348.545 450.548 346.812 451.821 345.533C453.095 344.255 454.821 343.536 456.622 343.534H554.54C556.341 343.536 558.067 344.255 559.34 345.533C560.614 346.812 561.33 348.545 561.332 350.353V353.585C561.33 355.393 560.614 357.126 559.34 358.405C558.067 359.683 556.341 360.402 554.54 360.404ZM456.622 344.833C455.164 344.834 453.766 345.416 452.736 346.451C451.705 347.486 451.125 348.889 451.123 350.353V353.585C451.125 355.049 451.705 356.452 452.736 357.487C453.766 358.522 455.164 359.104 456.622 359.105H554.54C555.998 359.104 557.395 358.522 558.426 357.487C559.457 356.452 560.037 355.049 560.038 353.585V350.353C560.037 348.889 559.457 347.486 558.426 346.451C557.395 345.416 555.998 344.834 554.54 344.833H456.622Z" fill="#0F172A"/>
<path d="M584.295 189.219V251.817C574.387 254.434 564.013 254.735 553.972 252.695C543.93 250.656 534.489 246.331 526.373 240.053C518.258 233.776 511.685 225.713 507.16 216.485C502.636 207.257 500.28 197.111 500.275 186.825C500.275 184.99 500.348 183.173 500.495 181.375H537.256C539.018 181.377 540.754 180.943 542.31 180.112C543.866 179.281 545.194 178.078 546.178 176.61C547.161 175.141 547.77 173.452 547.949 171.692C548.129 169.932 547.874 168.154 547.207 166.516H561.673C564.643 166.515 567.585 167.102 570.329 168.242C573.074 169.383 575.568 171.055 577.668 173.163C579.769 175.271 581.436 177.774 582.572 180.529C583.709 183.284 584.295 186.237 584.295 189.219Z" fill="#F0F0F0"/>
<path d="M483.947 495.804C483.947 497.123 483.898 498.427 483.792 499.713H450.272C447.303 499.714 444.362 499.126 441.618 497.986C438.875 496.845 436.382 495.173 434.282 493.065C432.182 490.956 430.516 488.454 429.38 485.699C428.243 482.945 427.659 479.993 427.659 477.011V446.228C434.685 445.311 441.825 445.907 448.604 447.978C455.382 450.049 461.644 453.546 466.97 458.238C472.296 462.929 476.565 468.706 479.493 475.183C482.42 481.661 483.939 488.691 483.947 495.804Z" fill="#1D4ED8"/>
<path d="M213.598 441.791C214.54 442.207 215.608 442.231 216.567 441.857C217.527 441.484 218.299 440.744 218.716 439.799L248.912 371.093C249.603 369.521 249.815 367.778 249.519 366.085C249.224 364.392 248.435 362.825 247.252 361.583C246.07 360.34 244.547 359.477 242.876 359.104C241.205 358.73 239.461 358.862 237.865 359.484C236.021 360.191 234.478 361.517 233.498 363.237C233.343 363.51 233.201 363.79 233.075 364.077L202.879 432.784C202.673 433.252 202.561 433.756 202.549 434.268C202.538 434.779 202.626 435.288 202.811 435.765C202.995 436.242 203.271 436.678 203.623 437.048C203.975 437.418 204.396 437.715 204.863 437.922L213.598 441.791Z" fill="#1D4ED8"/>
<path d="M247.673 399.3L217.805 392.636L225.197 373.002C226.457 368.204 229.387 364.017 233.458 361.202C237.529 358.386 242.47 357.129 247.385 357.658L247.673 357.69L247.673 399.3Z" fill="#2F2E41"/>
<path d="M308.002 442.774C307.123 442.772 306.264 442.515 305.528 442.034C304.792 441.552 304.21 440.867 303.854 440.061L273.657 371.355C272.697 369.169 272.608 366.696 273.408 364.446C274.208 362.196 275.837 360.339 277.959 359.258C280.081 358.177 282.536 357.953 284.817 358.633C287.098 359.313 289.033 360.845 290.224 362.914C290.391 363.206 290.543 363.507 290.679 363.815L320.875 432.522C321.36 433.625 321.388 434.876 320.954 436C320.52 437.124 319.659 438.029 318.56 438.516L309.528 442.516L309.524 442.506C309.036 442.683 308.521 442.773 308.002 442.774Z" fill="#1D4ED8"/>
<path d="M266.232 419.18C265.203 419.181 264.216 419.592 263.489 420.323C262.761 421.053 262.352 422.044 262.351 423.077V502.967C262.352 504 262.761 504.99 263.489 505.721C264.216 506.451 265.203 506.862 266.232 506.863H275.78C276.809 506.862 277.796 506.451 278.523 505.721C279.251 504.99 279.66 504 279.661 502.967V423.077C279.66 422.044 279.251 421.053 278.523 420.323C277.796 419.592 276.809 419.181 275.78 419.18H266.232Z" fill="#1D4ED8"/>
<path d="M247.348 419.18C246.319 419.181 245.332 419.592 244.605 420.323C243.877 421.053 243.468 422.044 243.466 423.077V502.967C243.468 504 243.877 504.99 244.605 505.721C245.332 506.451 246.319 506.862 247.348 506.863H256.896C257.925 506.862 258.911 506.451 259.639 505.721C260.367 504.99 260.776 504 260.777 502.967V423.077C260.776 422.044 260.367 421.053 259.639 420.323C258.911 419.592 257.925 419.181 256.896 419.18H247.348Z" fill="#1D4ED8"/>
<path d="M261.279 335.482C279.499 335.482 294.27 320.653 294.27 302.361C294.27 284.068 279.499 269.239 261.279 269.239C243.058 269.239 228.287 284.068 228.287 302.361C228.287 320.653 243.058 335.482 261.279 335.482Z" fill="#1D4ED8"/>
<path d="M272.258 316.264C274.396 316.205 277.058 316.13 279.108 314.626C279.719 314.16 280.22 313.566 280.578 312.884C280.936 312.203 281.14 311.452 281.178 310.683C281.215 310.136 281.126 309.588 280.917 309.082C280.709 308.576 280.386 308.125 279.975 307.765C278.904 306.856 277.34 306.643 275.655 307.14L277.401 294.33L276.119 294.153L274.066 309.214L275.137 308.721C276.378 308.149 278.081 307.858 279.14 308.756C279.4 308.991 279.602 309.283 279.731 309.609C279.861 309.935 279.913 310.287 279.885 310.637C279.854 311.209 279.7 311.768 279.434 312.276C279.169 312.783 278.797 313.227 278.345 313.577C276.749 314.748 274.628 314.899 272.222 314.966L272.258 316.264Z" fill="#2F2E41"/>
<path d="M290.708 295.434H283.74V296.733H290.708V295.434Z" fill="#2F2E41"/>
<path d="M268.714 295.434H261.745V296.733H268.714V295.434Z" fill="#2F2E41"/>
<path d="M293.968 443.177L282.094 356.153C281.967 355.22 281.507 354.364 280.8 353.745C280.093 353.126 279.187 352.785 278.248 352.785H269.285C269.323 352.57 269.342 352.353 269.344 352.135V348.888C269.344 347.855 268.935 346.864 268.207 346.133C267.479 345.402 266.492 344.992 265.462 344.992H257.699C256.67 344.992 255.683 345.402 254.955 346.133C254.227 346.864 253.818 347.855 253.818 348.888V352.135C253.819 352.353 253.839 352.57 253.876 352.785H244.913C243.975 352.785 243.069 353.126 242.362 353.745C241.655 354.364 241.195 355.22 241.068 356.153L229.193 443.177C229.118 443.728 229.161 444.289 229.32 444.822C229.479 445.355 229.749 445.848 230.114 446.267C230.478 446.687 230.928 447.023 231.432 447.253C231.937 447.483 232.484 447.602 233.039 447.603H290.123C290.677 447.602 291.225 447.483 291.73 447.253C292.234 447.023 292.684 446.687 293.048 446.267C293.412 445.848 293.683 445.355 293.842 444.822C294 444.289 294.044 443.728 293.968 443.177Z" fill="#2F2E41"/>
<path d="M275.489 399.3V357.69L275.777 357.658C280.698 357.129 285.644 358.391 289.718 361.213C293.791 364.035 296.721 368.23 297.975 373.036L305.357 392.636L275.489 399.3Z" fill="#2F2E41"/>
<path d="M259.617 336.515L236.798 327.623C233.066 326.169 229.314 324.76 225.602 323.255C224.012 322.699 222.548 321.833 221.293 320.706C220.201 319.545 219.456 318.098 219.145 316.532C218.353 313.173 218.496 309.501 218.553 306.074C218.597 302.325 218.904 298.583 219.473 294.878C220.469 287.914 222.809 281.212 226.362 275.147C232.762 264.606 243.788 256.675 256.47 257.308C262.342 257.601 268.247 259.716 272.61 263.747C273.065 264.293 273.576 264.789 274.133 265.229C274.521 265.375 274.943 265.403 275.347 265.311C275.879 265.276 276.412 265.25 276.945 265.232C278.795 265.154 280.649 265.232 282.486 265.465C285.834 265.828 289.007 267.151 291.627 269.276C293.807 271.158 295.581 273.816 295.763 276.77C295.852 278.126 295.628 279.484 295.111 280.74C294.593 281.995 293.795 283.115 292.779 284.012C290.056 286.315 286.172 285.506 282.906 285.332L270.943 284.696L264.881 284.373C263.633 284.307 263.637 286.255 264.881 286.321L280.992 287.178C283.581 287.316 286.249 287.654 288.84 287.498C290.831 287.407 292.732 286.639 294.231 285.321C295.6 284.058 296.619 282.461 297.19 280.686C297.761 278.91 297.864 277.016 297.489 275.189C296.658 271.203 293.704 267.905 290.24 265.944C285.526 263.275 279.897 263.019 274.623 263.414L275.309 263.699C269.343 257.271 260.205 254.557 251.626 255.506C242.568 256.509 234.512 261.582 228.724 268.519C222.27 276.254 218.753 285.898 217.386 295.815C216.674 301.169 216.44 306.577 216.686 311.973C216.676 314.353 217.081 316.716 217.884 318.955C218.8 321.134 220.456 322.917 222.558 323.986C224.968 325.153 227.445 326.175 229.977 327.045L238.384 330.321L254.898 336.756L259.101 338.394C260.266 338.848 260.771 336.965 259.617 336.515Z" fill="#2F2E41"/>
<path d="M223.738 270.307C221.755 270.307 219.816 269.716 218.167 268.61C216.518 267.504 215.233 265.932 214.474 264.093C213.715 262.253 213.517 260.229 213.903 258.277C214.29 256.324 215.245 254.53 216.648 253.122C218.05 251.715 219.837 250.756 221.782 250.368C223.727 249.979 225.743 250.178 227.575 250.94C229.407 251.702 230.973 252.993 232.075 254.648C233.176 256.303 233.764 258.249 233.764 260.24C233.762 262.909 232.704 265.468 230.824 267.355C228.945 269.242 226.396 270.304 223.738 270.307ZM223.738 252.122C222.138 252.122 220.575 252.599 219.245 253.491C217.915 254.383 216.879 255.65 216.267 257.134C215.655 258.617 215.495 260.249 215.807 261.824C216.119 263.399 216.889 264.845 218.02 265.981C219.151 267.116 220.592 267.889 222.16 268.202C223.729 268.516 225.355 268.355 226.832 267.74C228.31 267.126 229.573 266.085 230.461 264.75C231.35 263.415 231.824 261.846 231.824 260.24C231.821 258.088 230.969 256.025 229.453 254.503C227.937 252.981 225.882 252.125 223.738 252.122Z" fill="#2F2E41"/>
<path d="M391.35 332.688L369.648 316.024L353.049 337.812L374.751 354.476L391.35 332.688Z" fill="#F0F0F0"/>
<path d="M268.697 183.932C272.126 183.929 275.508 184.732 278.572 186.278C281.636 187.823 284.297 190.067 286.342 192.83L299.015 176.196L260.991 147L231.91 185.173L248.298 197.757C249.938 193.673 252.756 190.175 256.391 187.712C260.026 185.248 264.311 183.932 268.697 183.932Z" fill="#F0F0F0"/>
<path d="M633.353 508H176.647C176.475 508 176.311 507.932 176.189 507.81C176.068 507.688 176 507.523 176 507.351C176 507.178 176.068 507.013 176.189 506.891C176.311 506.77 176.475 506.701 176.647 506.701H633.353C633.525 506.701 633.689 506.77 633.811 506.891C633.932 507.013 634 507.178 634 507.351C634 507.523 633.932 507.688 633.811 507.81C633.689 507.932 633.525 508 633.353 508Z" fill="#0F172A"/>
<path d="M521.885 400.239H475.398C473.683 400.237 472.039 399.552 470.826 398.334C469.613 397.117 468.931 395.466 468.929 393.744V390.512C468.931 388.79 469.613 387.139 470.826 385.922C472.039 384.704 473.683 384.019 475.398 384.017H521.885C523.6 384.019 525.245 384.704 526.457 385.922C527.67 387.139 528.352 388.79 528.354 390.512V393.744C528.352 395.466 527.67 397.117 526.457 398.334C525.245 399.552 523.6 400.237 521.885 400.239Z" fill="#1D4ED8"/>
<path d="M526.784 394.007H480.296C478.496 394.005 476.769 393.286 475.496 392.007C474.222 390.729 473.506 388.996 473.504 387.188V383.955C473.506 382.147 474.222 380.414 475.496 379.136C476.769 377.857 478.496 377.138 480.296 377.136H526.784C528.584 377.138 530.311 377.857 531.584 379.136C532.858 380.414 533.574 382.147 533.576 383.955V387.188C533.574 388.996 532.858 390.729 531.584 392.007C530.311 393.286 528.584 394.005 526.784 394.007ZM480.296 378.435C478.839 378.437 477.441 379.019 476.41 380.054C475.379 381.089 474.799 382.492 474.798 383.955V387.188C474.799 388.651 475.379 390.055 476.41 391.089C477.441 392.124 478.839 392.706 480.296 392.708H526.784C528.241 392.706 529.639 392.124 530.67 391.089C531.701 390.055 532.281 388.651 532.282 387.188V383.955C532.281 382.492 531.701 381.089 530.67 380.054C529.639 379.019 528.241 378.437 526.784 378.435H480.296Z" fill="#0F172A"/>
</svg>
