<svg width="18" height="18" viewBox="0 0 18 18" fill="none" xmlns="http://www.w3.org/2000/svg">
<g clip-path="url(#clip0_92_68245)">
<path d="M6 8.5625C6 8.41332 6.05926 8.27024 6.16475 8.16475C6.27024 8.05926 6.41332 8 6.5625 8H11.0625C11.2117 8 11.3548 8.05926 11.4602 8.16475C11.5657 8.27024 11.625 8.41332 11.625 8.5625C11.625 8.71168 11.5657 8.85476 11.4602 8.96025C11.3548 9.06574 11.2117 9.125 11.0625 9.125H6.5625C6.41332 9.125 6.27024 9.06574 6.16475 8.96025C6.05926 8.85476 6 8.71168 6 8.5625Z" fill="#1F2937"/>
<path d="M15.75 1.125C16.0484 1.125 16.3345 1.24353 16.5455 1.4545C16.7565 1.66548 16.875 1.95163 16.875 2.25V15.75C16.875 16.0484 16.7565 16.3345 16.5455 16.5455C16.3345 16.7565 16.0484 16.875 15.75 16.875H2.25C1.95163 16.875 1.66548 16.7565 1.4545 16.5455C1.24353 16.3345 1.125 16.0484 1.125 15.75V2.25C1.125 1.95163 1.24353 1.66548 1.4545 1.4545C1.66548 1.24353 1.95163 1.125 2.25 1.125H15.75ZM2.25 0C1.65326 0 1.08097 0.237053 0.65901 0.65901C0.237053 1.08097 0 1.65326 0 2.25L0 15.75C0 16.3467 0.237053 16.919 0.65901 17.341C1.08097 17.7629 1.65326 18 2.25 18H15.75C16.3467 18 16.919 17.7629 17.341 17.341C17.7629 16.919 18 16.3467 18 15.75V2.25C18 1.65326 17.7629 1.08097 17.341 0.65901C16.919 0.237053 16.3467 0 15.75 0L2.25 0Z" fill="#1F2937"/>
</g>
<defs>
<clipPath id="clip0_92_68245">
<rect width="18" height="18" fill="white"/>
</clipPath>
</defs>
</svg>
