<svg width="51" height="50" viewBox="0 0 51 50" fill="none" xmlns="http://www.w3.org/2000/svg">
<path d="M10.9166 39.5834H20.1125L48.5354 11.1605C49.7529 9.94002 50.4366 8.28649 50.4366 6.56259C50.4366 4.83868 49.7529 3.18515 48.5354 1.96467C47.2972 0.781114 45.6503 0.120605 43.9375 0.120605C42.2246 0.120605 40.5777 0.781114 39.3395 1.96467L10.9166 30.3876V39.5834ZM15.0833 32.1126L42.2854 4.9105C42.7304 4.48541 43.3221 4.2482 43.9375 4.2482C44.5529 4.2482 45.1446 4.48541 45.5895 4.9105C46.0269 5.34908 46.2725 5.94319 46.2725 6.56259C46.2725 7.18198 46.0269 7.7761 45.5895 8.21467L18.3875 35.4168H15.0833V32.1126Z" fill="#1D4ED8"/>
<path d="M49.7104 15.8792L46.3333 19.2562V33.3333H33.8333V45.8333H4.66667V6.25C4.66667 5.69747 4.88616 5.16756 5.27686 4.77686C5.66756 4.38616 6.19747 4.16667 6.75 4.16667H31.2458L34.6229 0.789583C34.9271 0.507549 35.2478 0.243888 35.5833 0L6.75 0C5.0924 0 3.50268 0.65848 2.33058 1.83058C1.15848 3.00268 0.5 4.5924 0.5 6.25L0.5 50H38.8625L50.5 38.3625V14.9187C50.2556 15.2539 49.992 15.5746 49.7104 15.8792ZM38 44.9708V37.5H45.4708L38 44.9708Z" fill="#1D4ED8"/>
</svg>
