<svg width="40" height="35" viewBox="0 0 40 35" fill="none" xmlns="http://www.w3.org/2000/svg">
<path d="M40 17.4857C39.9861 15.9502 39.3804 14.482 38.3143 13.3995L26.0571 0.848757C25.5218 0.305134 24.7977 0 24.0429 0C23.288 0 22.5639 0.305134 22.0286 0.848757C21.7608 1.1201 21.5482 1.44291 21.4032 1.79859C21.2581 2.15427 21.1834 2.53577 21.1834 2.92108C21.1834 3.3064 21.2581 3.68789 21.4032 4.04357C21.5482 4.39925 21.7608 4.72207 22.0286 4.99341L31.4286 14.567H2.85714C2.09938 14.567 1.37266 14.8745 0.836838 15.4219C0.30102 15.9692 0 16.7116 0 17.4857C0 18.2598 0.30102 19.0022 0.836838 19.5496C1.37266 20.097 2.09938 20.4045 2.85714 20.4045H31.4286L22.0286 30.0073C21.4906 30.553 21.1868 31.2947 21.1841 32.0693C21.1814 32.8438 21.4801 33.5877 22.0143 34.1373C22.5485 34.6869 23.2746 34.9972 24.0328 35C24.7909 35.0027 25.5191 34.6977 26.0571 34.1519L38.3143 21.6012C39.3874 20.5115 39.9936 19.0315 40 17.4857Z" fill="#3B82F6"/>
</svg>
