<svg width="16" height="17" viewBox="0 0 16 17" fill="none" xmlns="http://www.w3.org/2000/svg">
<path d="M11.742 10.8441C12.7103 9.52279 13.144 7.88459 12.9563 6.25725C12.7687 4.62991 11.9735 3.13344 10.7298 2.06723C9.48616 1.00102 7.88579 0.443704 6.24888 0.506777C4.61197 0.56985 3.05923 1.24866 1.90131 2.40741C0.743395 3.56615 0.0656939 5.11938 0.00379204 6.75633C-0.0581098 8.39329 0.500353 9.99326 1.56745 11.2361C2.63455 12.479 4.13159 13.2732 5.75906 13.4597C7.38654 13.6462 9.02442 13.2113 10.345 12.2421H10.344C10.374 12.2821 10.406 12.3201 10.442 12.3571L14.292 16.2071C14.4796 16.3947 14.7339 16.5002 14.9992 16.5003C15.2645 16.5004 15.5189 16.3951 15.7065 16.2076C15.8942 16.0201 15.9997 15.7657 15.9997 15.5005C15.9998 15.2352 15.8946 14.9807 15.707 14.7931L11.857 10.9431C11.8213 10.9069 11.7828 10.8735 11.742 10.8431V10.8441ZM12 7.0001C12 7.72237 11.8578 8.43757 11.5814 9.10486C11.305 9.77215 10.8999 10.3785 10.3891 10.8892C9.87841 11.3999 9.27209 11.805 8.6048 12.0814C7.93751 12.3578 7.22231 12.5001 6.50004 12.5001C5.77777 12.5001 5.06258 12.3578 4.39528 12.0814C3.72799 11.805 3.12168 11.3999 2.61096 10.8892C2.10023 10.3785 1.69511 9.77215 1.41871 9.10486C1.14231 8.43757 1.00004 7.72237 1.00004 7.0001C1.00004 5.54141 1.57951 4.14246 2.61096 3.11101C3.64241 2.07956 5.04135 1.5001 6.50004 1.5001C7.95873 1.5001 9.35768 2.07956 10.3891 3.11101C11.4206 4.14246 12 5.54141 12 7.0001Z" fill="#3B82F6"/>
</svg>
