<svg width="16" height="16" viewBox="0 0 16 16" fill="none" xmlns="http://www.w3.org/2000/svg">
<g clip-path="url(#clip0_264_45068)">
<path fill-rule="evenodd" clip-rule="evenodd" d="M3.5 6C3.36739 6 3.24021 6.05268 3.14645 6.14645C3.05268 6.24021 3 6.36739 3 6.5V14.5C3 14.6326 3.05268 14.7598 3.14645 14.8536C3.24021 14.9473 3.36739 15 3.5 15H12.5C12.6326 15 12.7598 14.9473 12.8536 14.8536C12.9473 14.7598 13 14.6326 13 14.5V6.5C13 6.36739 12.9473 6.24021 12.8536 6.14645C12.7598 6.05268 12.6326 6 12.5 6H10.5C10.3674 6 10.2402 5.94732 10.1464 5.85355C10.0527 5.75979 10 5.63261 10 5.5C10 5.36739 10.0527 5.24021 10.1464 5.14645C10.2402 5.05268 10.3674 5 10.5 5H12.5C12.8978 5 13.2794 5.15804 13.5607 5.43934C13.842 5.72064 14 6.10218 14 6.5V14.5C14 14.8978 13.842 15.2794 13.5607 15.5607C13.2794 15.842 12.8978 16 12.5 16H3.5C3.10218 16 2.72064 15.842 2.43934 15.5607C2.15804 15.2794 2 14.8978 2 14.5V6.5C2 6.10218 2.15804 5.72064 2.43934 5.43934C2.72064 5.15804 3.10218 5 3.5 5H5.5C5.63261 5 5.75979 5.05268 5.85355 5.14645C5.94732 5.24021 6 5.36739 6 5.5C6 5.63261 5.94732 5.75979 5.85355 5.85355C5.75979 5.94732 5.63261 6 5.5 6H3.5Z" fill="#0F172A"/>
<path fill-rule="evenodd" clip-rule="evenodd" d="M7.6459 0.145978C7.69234 0.099415 7.74752 0.0624722 7.80827 0.0372657C7.86901 0.0120593 7.93413 -0.000915527 7.9999 -0.000915527C8.06567 -0.000915527 8.13079 0.0120593 8.19153 0.0372657C8.25228 0.0624722 8.30745 0.099415 8.3539 0.145978L11.3539 3.14598C11.4478 3.23986 11.5005 3.3672 11.5005 3.49998C11.5005 3.63275 11.4478 3.76009 11.3539 3.85398C11.26 3.94787 11.1327 4.00061 10.9999 4.00061C10.8671 4.00061 10.7398 3.94787 10.6459 3.85398L8.4999 1.70698V10.5C8.4999 10.6326 8.44722 10.7598 8.35345 10.8535C8.25969 10.9473 8.13251 11 7.9999 11C7.86729 11 7.74011 10.9473 7.64635 10.8535C7.55258 10.7598 7.4999 10.6326 7.4999 10.5V1.70698L5.3539 3.85398C5.30741 3.90047 5.25222 3.93734 5.19148 3.9625C5.13074 3.98766 5.06564 4.00061 4.9999 4.00061C4.86712 4.00061 4.73979 3.94787 4.6459 3.85398C4.59941 3.80749 4.56254 3.7523 4.53738 3.69156C4.51222 3.63082 4.49927 3.56572 4.49927 3.49998C4.49927 3.3672 4.55201 3.23986 4.6459 3.14598L7.6459 0.145978Z" fill="#0F172A"/>
</g>
<defs>
<clipPath id="clip0_264_45068">
<rect width="16" height="16" fill="white"/>
</clipPath>
</defs>
</svg>
