<svg width="14" height="9" viewBox="0 0 14 9" fill="none" xmlns="http://www.w3.org/2000/svg">
<path fill-rule="evenodd" clip-rule="evenodd" d="M0 1.875C0 1.41087 0.184375 0.965752 0.512563 0.637563C0.840752 0.309374 1.28587 0.125 1.75 0.125H8.3125C8.73696 0.12495 9.14696 0.279169 9.46617 0.558937C9.78538 0.838705 9.99202 1.22495 10.0476 1.64575L12.7689 0.4365C12.9021 0.37715 13.048 0.352031 13.1934 0.363425C13.3387 0.374819 13.479 0.422365 13.6013 0.501742C13.7236 0.581119 13.8242 0.689809 13.8938 0.817933C13.9634 0.946057 13.9999 1.08955 14 1.23538V7.76462C13.9999 7.91033 13.9634 8.0537 13.8938 8.18172C13.8242 8.30974 13.7237 8.41836 13.6015 8.49771C13.4793 8.57707 13.3392 8.62465 13.194 8.63614C13.0487 8.64763 12.9029 8.62266 12.7697 8.5635L10.0476 7.35425C9.99202 7.77505 9.78538 8.16129 9.46617 8.44106C9.14696 8.72083 8.73696 8.87505 8.3125 8.875H1.75C1.28587 8.875 0.840752 8.69063 0.512563 8.36244C0.184375 8.03425 0 7.58913 0 7.125V1.875ZM10.0625 6.40313L13.125 7.76462V1.23538L10.0625 2.59687V6.40313ZM1.75 1C1.51794 1 1.29538 1.09219 1.13128 1.25628C0.967187 1.42038 0.875 1.64294 0.875 1.875V7.125C0.875 7.35706 0.967187 7.57962 1.13128 7.74372C1.29538 7.90781 1.51794 8 1.75 8H8.3125C8.54456 8 8.76712 7.90781 8.93122 7.74372C9.09531 7.57962 9.1875 7.35706 9.1875 7.125V1.875C9.1875 1.64294 9.09531 1.42038 8.93122 1.25628C8.76712 1.09219 8.54456 1 8.3125 1H1.75Z" fill="#F8FAFC"/>
</svg>
