<?xml version="1.0" encoding="utf-8"?>
<!-- Generator: Adobe Illustrator 26.0.1, SVG Export Plug-In . SVG Version: 6.00 Build 0)  -->
<svg version="1.1" id="Layer_1" xmlns="http://www.w3.org/2000/svg" xmlns:xlink="http://www.w3.org/1999/xlink" x="0px" y="0px"
	 viewBox="0 0 16 16" style="enable-background:new 0 0 16 16;" xml:space="preserve">
<style type="text/css">
	.st0{fill:none;}
	.st1{fill-rule:evenodd;clip-rule:evenodd;fill:#0F172A;}
</style>
<rect y="0" class="st0" width="16" height="16"/>
<g>
	<path class="st1" d="M11,12.4c0.3-0.3,0.5-0.7,0.5-1.1l3.1,1.4c0.2,0.1,0.3,0.1,0.5,0.1c0.2,0,0.3-0.1,0.5-0.2s0.3-0.2,0.3-0.4
		c0.1-0.1,0.1-0.3,0.1-0.5V4.3c0-0.2,0-0.3-0.1-0.5s-0.2-0.3-0.3-0.4c-0.1-0.1-0.3-0.1-0.5-0.2c-0.2,0-0.3,0-0.5,0.1l-3.1,1.4
		c-0.1-0.5-0.3-0.9-0.7-1.2C10.5,3.2,10,3,9.5,3H4.3L5,4h4.5c0.3,0,0.5,0.1,0.7,0.3c0.2,0.2,0.3,0.4,0.3,0.7v6c0,0.2,0,0.4-0.1,0.5
		L11,12.4z M1.4,4.2C1.3,4.3,1.2,4.4,1.1,4.5C1,4.7,1,4.8,1,5v6c0,0.3,0.1,0.5,0.3,0.7C1.5,11.9,1.7,12,2,12h5l0.7,1H2
		c-0.5,0-1-0.2-1.4-0.6C0.2,12,0,11.5,0,11V5c0-0.7,0.3-1.3,0.8-1.6L1.4,4.2L1.4,4.2z M15,11.7l-3.5-1.6V5.8L15,4.3V11.7L15,11.7z
		 M10.6,15.3l-10-14l0.8-0.6l10,14L10.6,15.3z"/>
</g>
</svg>
