<svg width="51" height="39" viewBox="0 0 51 39" fill="none" xmlns="http://www.w3.org/2000/svg">
<path d="M17.5979 38.6167L2.025 23.0437C1.03958 22.0583 0.5 20.75 0.5 19.3604C0.5 17.9708 1.04167 16.6604 2.025 15.6771L17.7021 0L20.6479 2.94583L4.97083 18.625C4.70625 18.8896 4.66667 19.2 4.66667 19.3625C4.66667 19.525 4.70625 19.8354 4.97292 20.1L20.5438 35.6729L17.5979 38.6188V38.6167ZM48.975 23.0437C49.9583 22.0583 50.5 20.75 50.5 19.3604C50.5 17.9708 49.9583 16.6604 48.975 15.6771L33.2979 0L30.3521 2.94583L46.0292 18.625C46.2937 18.8896 46.3333 19.2 46.3333 19.3604C46.3333 19.5208 46.2937 19.8333 46.0292 20.0979L30.4562 35.6708L33.4021 38.6167L48.975 23.0437Z" fill="#1D4ED8"/>
</svg>
