<svg width="51" height="46" viewBox="0 0 51 46" fill="none" xmlns="http://www.w3.org/2000/svg">
<path d="M50.5 37.5833V6.33325C50.5 4.67565 49.8415 3.08594 48.6694 1.91383C47.4973 0.741732 45.9076 0.083252 44.25 0.083252H6.75C5.0924 0.083252 3.50268 0.741732 2.33058 1.91383C1.15848 3.08594 0.5 4.67565 0.5 6.33325L0.5 37.5833H23.4167V41.7499H13V45.9166H38V41.7499H27.5833V37.5833H50.5ZM6.75 4.24992H44.25C44.8025 4.24992 45.3324 4.46941 45.7231 4.86011C46.1138 5.25081 46.3333 5.78072 46.3333 6.33325V25.0833H4.66667V6.33325C4.66667 5.78072 4.88616 5.25081 5.27686 4.86011C5.66756 4.46941 6.19747 4.24992 6.75 4.24992ZM4.66667 29.2499H46.3333V33.4166H4.66667V29.2499Z" fill="#1D4ED8"/>
</svg>
