<svg width="16" height="17" viewBox="0 0 16 17" fill="none" xmlns="http://www.w3.org/2000/svg">
<g clip-path="url(#clip0_511_34588)">
<path d="M14 5.5C14.2652 5.5 14.5196 5.60536 14.7071 5.79289C14.8946 5.98043 15 6.23478 15 6.5V11.5C15 11.7652 14.8946 12.0196 14.7071 12.2071C14.5196 12.3946 14.2652 12.5 14 12.5H2C1.73478 12.5 1.48043 12.3946 1.29289 12.2071C1.10536 12.0196 1 11.7652 1 11.5V6.5C1 6.23478 1.10536 5.98043 1.29289 5.79289C1.48043 5.60536 1.73478 5.5 2 5.5H14ZM2 4.5C1.46957 4.5 0.960859 4.71071 0.585786 5.08579C0.210714 5.46086 0 5.96957 0 6.5L0 11.5C0 12.0304 0.210714 12.5391 0.585786 12.9142C0.960859 13.2893 1.46957 13.5 2 13.5H14C14.5304 13.5 15.0391 13.2893 15.4142 12.9142C15.7893 12.5391 16 12.0304 16 11.5V6.5C16 5.96957 15.7893 5.46086 15.4142 5.08579C15.0391 4.71071 14.5304 4.5 14 4.5H2Z" fill="#3B82F6"/>
<path d="M13 10.75C13 10.6837 13.0263 10.6201 13.0732 10.5732C13.1201 10.5263 13.1837 10.5 13.25 10.5H13.75C13.8163 10.5 13.8799 10.5263 13.9268 10.5732C13.9737 10.6201 14 10.6837 14 10.75V11.25C14 11.3163 13.9737 11.3799 13.9268 11.4268C13.8799 11.4737 13.8163 11.5 13.75 11.5H13.25C13.1837 11.5 13.1201 11.4737 13.0732 11.4268C13.0263 11.3799 13 11.3163 13 11.25V10.75ZM13 8.75C13 8.6837 13.0263 8.62011 13.0732 8.57322C13.1201 8.52634 13.1837 8.5 13.25 8.5H13.75C13.8163 8.5 13.8799 8.52634 13.9268 8.57322C13.9737 8.62011 14 8.6837 14 8.75V9.25C14 9.3163 13.9737 9.37989 13.9268 9.42678C13.8799 9.47366 13.8163 9.5 13.75 9.5H13.25C13.1837 9.5 13.1201 9.47366 13.0732 9.42678C13.0263 9.37989 13 9.3163 13 9.25V8.75ZM8 8.75C8 8.6837 8.02634 8.62011 8.07322 8.57322C8.12011 8.52634 8.1837 8.5 8.25 8.5H8.75C8.8163 8.5 8.87989 8.52634 8.92678 8.57322C8.97366 8.62011 9 8.6837 9 8.75V9.25C9 9.3163 8.97366 9.37989 8.92678 9.42678C8.87989 9.47366 8.8163 9.5 8.75 9.5H8.25C8.1837 9.5 8.12011 9.47366 8.07322 9.42678C8.02634 9.37989 8 9.3163 8 9.25V8.75ZM10 8.75C10 8.6837 10.0263 8.62011 10.0732 8.57322C10.1201 8.52634 10.1837 8.5 10.25 8.5H11.75C11.8163 8.5 11.8799 8.52634 11.9268 8.57322C11.9737 8.62011 12 8.6837 12 8.75V9.25C12 9.3163 11.9737 9.37989 11.9268 9.42678C11.8799 9.47366 11.8163 9.5 11.75 9.5H10.25C10.1837 9.5 10.1201 9.47366 10.0732 9.42678C10.0263 9.37989 10 9.3163 10 9.25V8.75ZM11 10.75C11 10.6837 11.0263 10.6201 11.0732 10.5732C11.1201 10.5263 11.1837 10.5 11.25 10.5H11.75C11.8163 10.5 11.8799 10.5263 11.9268 10.5732C11.9737 10.6201 12 10.6837 12 10.75V11.25C12 11.3163 11.9737 11.3799 11.9268 11.4268C11.8799 11.4737 11.8163 11.5 11.75 11.5H11.25C11.1837 11.5 11.1201 11.4737 11.0732 11.4268C11.0263 11.3799 11 11.3163 11 11.25V10.75ZM6 8.75C6 8.6837 6.02634 8.62011 6.07322 8.57322C6.12011 8.52634 6.1837 8.5 6.25 8.5H6.75C6.8163 8.5 6.87989 8.52634 6.92678 8.57322C6.97366 8.62011 7 8.6837 7 8.75V9.25C7 9.3163 6.97366 9.37989 6.92678 9.42678C6.87989 9.47366 6.8163 9.5 6.75 9.5H6.25C6.1837 9.5 6.12011 9.47366 6.07322 9.42678C6.02634 9.37989 6 9.3163 6 9.25V8.75ZM4 8.75C4 8.6837 4.02634 8.62011 4.07322 8.57322C4.12011 8.52634 4.1837 8.5 4.25 8.5H4.75C4.8163 8.5 4.87989 8.52634 4.92678 8.57322C4.97366 8.62011 5 8.6837 5 8.75V9.25C5 9.3163 4.97366 9.37989 4.92678 9.42678C4.87989 9.47366 4.8163 9.5 4.75 9.5H4.25C4.1837 9.5 4.12011 9.47366 4.07322 9.42678C4.02634 9.37989 4 9.3163 4 9.25V8.75ZM2 8.75C2 8.6837 2.02634 8.62011 2.07322 8.57322C2.12011 8.52634 2.1837 8.5 2.25 8.5H2.75C2.8163 8.5 2.87989 8.52634 2.92678 8.57322C2.97366 8.62011 3 8.6837 3 8.75V9.25C3 9.3163 2.97366 9.37989 2.92678 9.42678C2.87989 9.47366 2.8163 9.5 2.75 9.5H2.25C2.1837 9.5 2.12011 9.47366 2.07322 9.42678C2.02634 9.37989 2 9.3163 2 9.25V8.75ZM13 6.75C13 6.6837 13.0263 6.62011 13.0732 6.57322C13.1201 6.52634 13.1837 6.5 13.25 6.5H13.75C13.8163 6.5 13.8799 6.52634 13.9268 6.57322C13.9737 6.62011 14 6.6837 14 6.75V7.25C14 7.3163 13.9737 7.37989 13.9268 7.42678C13.8799 7.47366 13.8163 7.5 13.75 7.5H13.25C13.1837 7.5 13.1201 7.47366 13.0732 7.42678C13.0263 7.37989 13 7.3163 13 7.25V6.75ZM11 6.75C11 6.6837 11.0263 6.62011 11.0732 6.57322C11.1201 6.52634 11.1837 6.5 11.25 6.5H11.75C11.8163 6.5 11.8799 6.52634 11.9268 6.57322C11.9737 6.62011 12 6.6837 12 6.75V7.25C12 7.3163 11.9737 7.37989 11.9268 7.42678C11.8799 7.47366 11.8163 7.5 11.75 7.5H11.25C11.1837 7.5 11.1201 7.47366 11.0732 7.42678C11.0263 7.37989 11 7.3163 11 7.25V6.75ZM9 6.75C9 6.6837 9.02634 6.62011 9.07322 6.57322C9.12011 6.52634 9.1837 6.5 9.25 6.5H9.75C9.8163 6.5 9.87989 6.52634 9.92678 6.57322C9.97366 6.62011 10 6.6837 10 6.75V7.25C10 7.3163 9.97366 7.37989 9.92678 7.42678C9.87989 7.47366 9.8163 7.5 9.75 7.5H9.25C9.1837 7.5 9.12011 7.47366 9.07322 7.42678C9.02634 7.37989 9 7.3163 9 7.25V6.75ZM7 6.75C7 6.6837 7.02634 6.62011 7.07322 6.57322C7.12011 6.52634 7.1837 6.5 7.25 6.5H7.75C7.8163 6.5 7.87989 6.52634 7.92678 6.57322C7.97366 6.62011 8 6.6837 8 6.75V7.25C8 7.3163 7.97366 7.37989 7.92678 7.42678C7.87989 7.47366 7.8163 7.5 7.75 7.5H7.25C7.1837 7.5 7.12011 7.47366 7.07322 7.42678C7.02634 7.37989 7 7.3163 7 7.25V6.75ZM5 6.75C5 6.6837 5.02634 6.62011 5.07322 6.57322C5.12011 6.52634 5.1837 6.5 5.25 6.5H5.75C5.8163 6.5 5.87989 6.52634 5.92678 6.57322C5.97366 6.62011 6 6.6837 6 6.75V7.25C6 7.3163 5.97366 7.37989 5.92678 7.42678C5.87989 7.47366 5.8163 7.5 5.75 7.5H5.25C5.1837 7.5 5.12011 7.47366 5.07322 7.42678C5.02634 7.37989 5 7.3163 5 7.25V6.75ZM2 6.75C2 6.6837 2.02634 6.62011 2.07322 6.57322C2.12011 6.52634 2.1837 6.5 2.25 6.5H3.75C3.8163 6.5 3.87989 6.52634 3.92678 6.57322C3.97366 6.62011 4 6.6837 4 6.75V7.25C4 7.3163 3.97366 7.37989 3.92678 7.42678C3.87989 7.47366 3.8163 7.5 3.75 7.5H2.25C2.1837 7.5 2.12011 7.47366 2.07322 7.42678C2.02634 7.37989 2 7.3163 2 7.25V6.75ZM2 10.75C2 10.6837 2.02634 10.6201 2.07322 10.5732C2.12011 10.5263 2.1837 10.5 2.25 10.5H2.75C2.8163 10.5 2.87989 10.5263 2.92678 10.5732C2.97366 10.6201 3 10.6837 3 10.75V11.25C3 11.3163 2.97366 11.3799 2.92678 11.4268C2.87989 11.4737 2.8163 11.5 2.75 11.5H2.25C2.1837 11.5 2.12011 11.4737 2.07322 11.4268C2.02634 11.3799 2 11.3163 2 11.25V10.75ZM4 10.75C4 10.6837 4.02634 10.6201 4.07322 10.5732C4.12011 10.5263 4.1837 10.5 4.25 10.5H9.75C9.8163 10.5 9.87989 10.5263 9.92678 10.5732C9.97366 10.6201 10 10.6837 10 10.75V11.25C10 11.3163 9.97366 11.3799 9.92678 11.4268C9.87989 11.4737 9.8163 11.5 9.75 11.5H4.25C4.1837 11.5 4.12011 11.4737 4.07322 11.4268C4.02634 11.3799 4 11.3163 4 11.25V10.75Z" fill="#3B82F6"/>
</g>
<defs>
<clipPath id="clip0_511_34588">
<rect width="16" height="16" fill="white" transform="translate(0 0.5)"/>
</clipPath>
</defs>
</svg>
