<svg width="40" height="35" viewBox="0 0 40 35" fill="none" xmlns="http://www.w3.org/2000/svg">
<path d="M0 17.4857C0.0139046 15.9502 0.619556 14.482 1.68571 13.3995L13.9429 0.848757C14.4782 0.305134 15.2023 0 15.9571 0C16.712 0 17.4361 0.305134 17.9714 0.848757C18.2392 1.1201 18.4518 1.44291 18.5968 1.79859C18.7419 2.15427 18.8166 2.53577 18.8166 2.92108C18.8166 3.3064 18.7419 3.68789 18.5968 4.04357C18.4518 4.39925 18.2392 4.72207 17.9714 4.99341L8.57143 14.567H37.1429C37.9006 14.567 38.6273 14.8745 39.1632 15.4219C39.699 15.9692 40 16.7116 40 17.4857C40 18.2598 39.699 19.0022 39.1632 19.5496C38.6273 20.097 37.9006 20.4045 37.1429 20.4045H8.57143L17.9714 30.0073C18.5094 30.553 18.8132 31.2947 18.8159 32.0693C18.8186 32.8438 18.5199 33.5877 17.9857 34.1373C17.4515 34.6869 16.7254 34.9972 15.9672 35C15.2091 35.0027 14.4809 34.6977 13.9429 34.1519L1.68571 21.6012C0.612606 20.5115 0.00637817 19.0315 0 17.4857Z" fill="#3B82F6"/>
</svg>
