<?xml version="1.0" encoding="utf-8"?>
<!-- Generator: Adobe Illustrator 26.0.1, SVG Export Plug-In . SVG Version: 6.00 Build 0)  -->
<svg version="1.1" id="Layer_1" xmlns="http://www.w3.org/2000/svg" xmlns:xlink="http://www.w3.org/1999/xlink" x="0px" y="0px"
	 viewBox="0 0 16 16" style="enable-background:new 0 0 16 16;" xml:space="preserve">
<style type="text/css">
	.st0{fill:none;}
	.st1{fill:#0F172A;}
</style>
<rect y="0" class="st0" width="16" height="16"/>
<g>
	<path class="st1" d="M13,8c0,0.6-0.1,1.1-0.3,1.6l-0.8-0.8C12,8.5,12,8.3,12,8V7c0-0.1,0.1-0.3,0.1-0.4c0.1-0.1,0.2-0.1,0.4-0.1
		s0.3,0.1,0.4,0.1C12.9,6.7,13,6.9,13,7V8z M8,12c0.8,0,1.6-0.2,2.2-0.7l0.7,0.7c-0.7,0.5-1.6,0.8-2.4,0.9v2h3
		c0.1,0,0.3,0.1,0.4,0.1c0.1,0.1,0.1,0.2,0.1,0.4s-0.1,0.3-0.1,0.4c-0.1,0.1-0.2,0.1-0.4,0.1h-7c-0.1,0-0.3-0.1-0.4-0.1
		C4.1,15.8,4,15.6,4,15.5s0.1-0.3,0.1-0.4C4.2,15.1,4.4,15,4.5,15h3v-2c-1.2-0.1-2.4-0.7-3.2-1.6C3.5,10.4,3,9.2,3,8V7
		c0-0.1,0.1-0.3,0.1-0.4c0.1-0.1,0.2-0.1,0.4-0.1s0.3,0.1,0.4,0.1C3.9,6.7,4,6.9,4,7v1c0,1.1,0.4,2.1,1.2,2.8C5.9,11.6,6.9,12,8,12z
		 M11,3v4.9l-1-1V3c0-0.5-0.2-1-0.6-1.4C9.1,1.2,8.6,1,8.1,1C7.5,1,7,1.2,6.6,1.5C6.3,1.9,6,2.4,6,2.9L5.2,2
		c0.2-0.7,0.7-1.2,1.3-1.6c0.6-0.4,1.3-0.5,2-0.4c0.7,0.1,1.3,0.5,1.8,1C10.7,1.6,11,2.3,11,3z"/>
	<path class="st1" d="M9.5,10.6L8.7,9.9C8.4,10,8.1,10,7.8,10c-0.3,0-0.6-0.2-0.9-0.3C6.6,9.5,6.4,9.2,6.2,8.9C6.1,8.6,6,8.3,6,8
		V7.1l-1-1V8c0,0.5,0.1,1,0.4,1.5C5.7,10,6,10.3,6.5,10.6C6.9,10.9,7.5,11,8,11C8.5,11,9,10.9,9.5,10.6z M1.6,1.4l12,12l0.7-0.7
		l-12-12L1.6,1.4z"/>
</g>
</svg>
