<svg width="18" height="18" viewBox="0 0 18 18" fill="none" xmlns="http://www.w3.org/2000/svg">
<g clip-path="url(#clip0_92_68242)">
<path d="M15.75 1.125C16.0484 1.125 16.3345 1.24353 16.5455 1.4545C16.7565 1.66548 16.875 1.95163 16.875 2.25V15.75C16.875 16.0484 16.7565 16.3345 16.5455 16.5455C16.3345 16.7565 16.0484 16.875 15.75 16.875H2.25C1.95163 16.875 1.66548 16.7565 1.4545 16.5455C1.24353 16.3345 1.125 16.0484 1.125 15.75V2.25C1.125 1.95163 1.24353 1.66548 1.4545 1.4545C1.66548 1.24353 1.95163 1.125 2.25 1.125H15.75ZM2.25 0C1.65326 0 1.08097 0.237053 0.65901 0.65901C0.237053 1.08097 0 1.65326 0 2.25L0 15.75C0 16.3467 0.237053 16.919 0.65901 17.341C1.08097 17.7629 1.65326 18 2.25 18H15.75C16.3467 18 16.919 17.7629 17.341 17.341C17.7629 16.919 18 16.3467 18 15.75V2.25C18 1.65326 17.7629 1.08097 17.341 0.65901C16.919 0.237053 16.3467 0 15.75 0L2.25 0Z" fill="#1F2937"/>
<path d="M9 4.5C9.14918 4.5 9.29226 4.55926 9.39775 4.66475C9.50324 4.77024 9.5625 4.91332 9.5625 5.0625V8.4375H12.9375C13.0867 8.4375 13.2298 8.49676 13.3352 8.60225C13.4407 8.70774 13.5 8.85082 13.5 9C13.5 9.14918 13.4407 9.29226 13.3352 9.39775C13.2298 9.50324 13.0867 9.5625 12.9375 9.5625H9.5625V12.9375C9.5625 13.0867 9.50324 13.2298 9.39775 13.3352C9.29226 13.4407 9.14918 13.5 9 13.5C8.85082 13.5 8.70774 13.4407 8.60225 13.3352C8.49676 13.2298 8.4375 13.0867 8.4375 12.9375V9.5625H5.0625C4.91332 9.5625 4.77024 9.50324 4.66475 9.39775C4.55926 9.29226 4.5 9.14918 4.5 9C4.5 8.85082 4.55926 8.70774 4.66475 8.60225C4.77024 8.49676 4.91332 8.4375 5.0625 8.4375H8.4375V5.0625C8.4375 4.91332 8.49676 4.77024 8.60225 4.66475C8.70774 4.55926 8.85082 4.5 9 4.5V4.5Z" fill="#1F2937"/>
</g>
<defs>
<clipPath id="clip0_92_68242">
<rect width="18" height="18" fill="white"/>
</clipPath>
</defs>
</svg>
