<svg width="51" height="50" viewBox="0 0 51 50" fill="none" xmlns="http://www.w3.org/2000/svg">
<path d="M48.292 2.20846C46.8757 0.794292 44.956 0 42.9545 0C40.9531 0 39.0334 0.794292 37.617 2.20846L0.500366 39.3251V50.0001H11.1754L48.292 12.8835C49.7057 11.4668 50.4996 9.54728 50.4996 7.54596C50.4996 5.54465 49.7057 3.62508 48.292 2.20846ZM9.4587 45.8335H4.66703V41.0418L32.3962 13.3335L37.1879 18.1251L9.4587 45.8335ZM45.3462 9.93763L40.1233 15.1605L35.342 10.3689L40.5629 5.1543C41.1983 4.51888 42.0601 4.16191 42.9587 4.16191C43.8573 4.16191 44.7191 4.51888 45.3545 5.1543C45.9899 5.78971 46.3469 6.65152 46.3469 7.55013C46.3469 8.44874 45.9899 9.31055 45.3545 9.94596L45.3462 9.93763Z" fill="#1D4ED8"/>
</svg>
