<svg width="51" height="50" viewBox="0 0 51 50" fill="none" xmlns="http://www.w3.org/2000/svg">
<path d="M39.0417 0H11.9583C5.64583 0 0.5 5.14583 0.5 11.4583V38.5417C0.5 44.8542 5.64583 50 11.9583 50H39.0417C45.3542 50 50.5 44.8542 50.5 38.5417V11.4583C50.5 5.14583 45.3542 0 39.0417 0ZM44.25 38.5417C44.25 41.4167 41.9167 43.75 39.0417 43.75H11.9583C9.08333 43.75 6.75 41.4167 6.75 38.5417V11.4583C6.75 8.58333 9.08333 6.25 11.9583 6.25H39.0417C41.9167 6.25 44.25 8.58333 44.25 11.4583V38.5417ZM17.1667 19.7917V36.4583C17.1667 38.1875 15.7708 39.5833 14.0417 39.5833C12.3125 39.5833 10.9167 38.1875 10.9167 36.4583V19.7917C10.9167 18.0625 12.3125 16.6667 14.0417 16.6667C15.7708 16.6667 17.1667 18.0625 17.1667 19.7917ZM28.625 13.5417V36.4583C28.625 38.1875 27.2292 39.5833 25.5 39.5833C23.7708 39.5833 22.375 38.1875 22.375 36.4583V13.5417C22.375 11.8125 23.7708 10.4167 25.5 10.4167C27.2292 10.4167 28.625 11.8125 28.625 13.5417ZM40.0833 32.2917V36.4583C40.0833 38.1875 38.6875 39.5833 36.9583 39.5833C35.2292 39.5833 33.8333 38.1875 33.8333 36.4583V32.2917C33.8333 30.5625 35.2292 29.1667 36.9583 29.1667C38.6875 29.1667 40.0833 30.5625 40.0833 32.2917Z" fill="#1D4ED8"/>
</svg>
