<svg width="12" height="12" viewBox="0 0 12 12" fill="none" xmlns="http://www.w3.org/2000/svg">
<g clip-path="url(#clip0_264_45076)">
<path d="M12 6C12 7.5913 11.3679 9.11742 10.2426 10.2426C9.11742 11.3679 7.5913 12 6 12C4.4087 12 2.88258 11.3679 1.75736 10.2426C0.632141 9.11742 0 7.5913 0 6C0 4.4087 0.632141 2.88258 1.75736 1.75736C2.88258 0.632141 4.4087 0 6 0C7.5913 0 9.11742 0.632141 10.2426 1.75736C11.3679 2.88258 12 4.4087 12 6V6ZM6 8.25C6.59674 8.25 7.16903 8.01295 7.59099 7.59099C8.01295 7.16903 8.25 6.59674 8.25 6C8.25 5.40326 8.01295 4.83097 7.59099 4.40901C7.16903 3.98705 6.59674 3.75 6 3.75C5.40326 3.75 4.83097 3.98705 4.40901 4.40901C3.98705 4.83097 3.75 5.40326 3.75 6C3.75 6.59674 3.98705 7.16903 4.40901 7.59099C4.83097 8.01295 5.40326 8.25 6 8.25V8.25Z" fill="#B91C1C"/>
</g>
<defs>
<clipPath id="clip0_264_45076">
<rect width="12" height="12" fill="white"/>
</clipPath>
</defs>
</svg>
