<svg width="24" height="24" viewBox="0 0 24 24" fill="none" xmlns="http://www.w3.org/2000/svg">
<g clip-path="url(#clip0_264_45070)">
<path fill-rule="evenodd" clip-rule="evenodd" d="M21.6195 12.9716C21.6193 13.2188 21.5666 13.4632 21.4648 13.6886C21.363 13.9139 21.2145 14.1151 21.0291 14.2787C20.8437 14.4423 20.6256 14.5646 20.3894 14.6376C20.1531 14.7105 19.9041 14.7324 19.6587 14.7019L16.7589 14.3405C16.2271 14.2741 15.7555 13.9665 15.4797 13.5068L14.3179 11.5715C14.2577 11.4713 14.1726 11.3884 14.0709 11.3307C13.9692 11.2731 13.8543 11.2428 13.7374 11.2427H10.2627C10.1456 11.2428 10.0305 11.2731 9.92863 11.3309C9.82677 11.3886 9.7416 11.4718 9.68142 11.5722L8.52035 13.5068C8.38426 13.7337 8.1984 13.9266 7.97679 14.071C7.75519 14.2154 7.50365 14.3076 7.24119 14.3405L4.34206 14.7026C3.29978 14.8327 2.37983 14.0202 2.38054 12.9716V11.5093C2.38054 10.4628 2.93279 9.45088 3.9185 8.97854C6.44095 7.76914 9.20334 7.1432 12.0007 7.14713C14.7978 7.14308 17.56 7.76878 20.0823 8.97783C21.0665 9.45018 21.6195 10.4628 21.6195 11.5093L21.6195 12.9716Z" fill="#B91C1C"/>
</g>
<defs>
<clipPath id="clip0_264_45070">
<rect width="16" height="16" fill="white" transform="translate(23.3137 12) rotate(135)"/>
</clipPath>
</defs>
</svg>
