<svg width="560" height="404" viewBox="0 0 560 404" fill="none" xmlns="http://www.w3.org/2000/svg">
<g clip-path="url(#clip0_286_44414)">
<path d="M80.8326 347.36V348.406C80.8341 350.14 81.523 351.802 82.7479 353.028C83.9729 354.254 85.6339 354.943 87.3662 354.945H142.771C144.504 354.944 146.165 354.255 147.39 353.029C148.616 351.803 149.304 350.14 149.305 348.406V347.36C149.308 345.83 148.771 344.348 147.789 343.176C147.462 342.786 147.092 342.435 146.686 342.129H117.949C117.602 342.129 117.27 341.991 117.025 341.746C116.78 341.501 116.642 341.168 116.642 340.822H87.3662C85.6342 340.824 83.9737 341.514 82.7489 342.739C81.5242 343.965 80.835 345.627 80.8326 347.36Z" fill="#3F3D56"/>
<path d="M111.412 402.808H118.207V354.685H111.412V402.808Z" fill="#3F3D56"/>
<path d="M92.0729 402.57C92.0729 403.304 102.37 402.854 115.071 402.854C127.773 402.854 138.069 403.304 138.069 402.57C138.069 401.835 127.773 396.008 115.071 396.008C102.37 396.008 92.0729 401.835 92.0729 402.57Z" fill="#3F3D56"/>
<path d="M91.4954 346.257L114.682 349.96L141.621 354.265L150.962 355.756C151.858 355.897 152.775 355.677 153.509 355.144C154.244 354.61 154.738 353.807 154.882 352.91L155.305 350.263L155.697 347.8L156.021 345.77C156.094 345.316 156.075 344.852 155.963 344.406C155.852 343.96 155.651 343.542 155.373 343.176C155.044 342.725 154.608 342.366 154.103 342.129H117.949C117.602 342.129 117.27 341.991 117.025 341.746C116.78 341.501 116.642 341.168 116.642 340.822V339.791C116.642 339.444 116.78 339.112 117.025 338.867C117.27 338.621 117.602 338.484 117.949 338.484H132.155L125.606 337.437L105.472 334.22L93.7169 332.343C92.818 332.2 91.8994 332.42 91.1625 332.955C90.4256 333.489 89.9307 334.294 89.7863 335.193L88.6467 342.328C88.5076 343.227 88.7289 344.144 89.2626 344.879C89.7962 345.615 90.5988 346.11 91.4954 346.257Z" fill="#6C63FF"/>
<path d="M141.621 345.263V385.127C141.622 386.035 141.984 386.905 142.625 387.548C143.267 388.19 144.137 388.551 145.045 388.553H152.273C153.181 388.551 154.051 388.19 154.693 387.548C155.335 386.906 155.696 386.035 155.697 385.127V345.263C155.698 344.506 155.446 343.772 154.981 343.176C154.637 342.718 154.179 342.357 153.653 342.129H143.66C143.136 342.359 142.681 342.719 142.337 343.176C141.873 343.772 141.621 344.507 141.621 345.263Z" fill="#6C63FF"/>
<path d="M119.835 277.791C119.872 278.146 119.964 278.494 120.107 278.821C120.325 279.321 120.66 279.761 121.085 280.103L121.101 280.113L141.726 296.857L142.029 297.098L146.299 300.566L147.59 301.612H169.925L168.639 300.566L150.988 286.233L139.159 276.629L129.955 269.16C129.416 268.721 128.756 268.458 128.063 268.407C128.06 268.404 128.056 268.402 128.052 268.401C127.847 268.387 127.64 268.39 127.435 268.412C127.129 268.443 126.828 268.517 126.542 268.632C126.346 268.702 126.16 268.797 125.988 268.914C125.663 269.112 125.374 269.365 125.136 269.662L120.651 275.191L120.583 275.28C120.299 275.628 120.086 276.029 119.958 276.46C119.83 276.891 119.788 277.343 119.835 277.791Z" fill="#6C63FF"/>
<path d="M121.1 280.113C121.489 281.086 122.054 281.978 122.768 282.744L136.499 297.505C136.831 297.811 137.219 298.047 137.643 298.201C138.066 298.356 138.516 298.425 138.966 298.405C139.416 298.385 139.858 298.276 140.266 298.085C140.674 297.894 141.04 297.624 141.344 297.291L141.726 296.857L141.893 296.669L147.825 290.01L150.376 287.143C150.546 286.967 150.693 286.77 150.815 286.557C150.878 286.453 150.935 286.343 150.988 286.233C151.201 285.744 151.3 285.213 151.275 284.68C151.258 284.226 151.149 283.781 150.956 283.37C150.763 282.959 150.489 282.592 150.151 282.289L134.23 270.112C132.473 268.764 130.262 268.152 128.063 268.407C128.06 268.404 128.056 268.402 128.052 268.401C127.564 268.463 127.081 268.564 126.609 268.705C126.4 268.762 126.197 268.835 125.987 268.914C124.638 269.422 123.441 270.269 122.512 271.372C121.501 272.561 120.835 274.005 120.586 275.545C120.337 277.086 120.515 278.666 121.1 280.113Z" fill="#2F2E41"/>
<path d="M114.581 256.25C129.05 256.25 140.779 244.512 140.779 230.032C140.779 215.552 129.05 203.814 114.581 203.814C100.112 203.814 88.3824 215.552 88.3824 230.032C88.3824 244.512 100.112 256.25 114.581 256.25Z" fill="#6C63FF"/>
<path d="M107.605 342.642L117.321 344.19L117.541 344.227L132.312 346.586L141.621 348.077L155.305 350.263L155.697 350.326L157.73 350.65L167.071 352.141C167.968 352.283 168.884 352.063 169.619 351.529C170.354 350.996 170.847 350.193 170.991 349.296L171.806 344.19L172.131 342.161C172.131 342.15 172.136 342.14 172.136 342.129H117.949C117.602 342.129 117.27 341.991 117.025 341.746C116.78 341.501 116.642 341.168 116.642 340.822V339.791C116.642 339.444 116.78 339.112 117.025 338.867C117.27 338.621 117.602 338.484 117.949 338.484H135.072V332.766L134.026 332.599L128.862 331.772L109.821 328.733C108.923 328.591 108.006 328.81 107.27 329.344C106.534 329.877 106.04 330.681 105.895 331.579L105.472 334.22L104.756 338.719C104.616 339.617 104.837 340.534 105.371 341.269C105.904 342.005 106.708 342.498 107.605 342.642Z" fill="#6C63FF"/>
<path d="M78.9246 319.48C78.9246 340.853 81.0939 353.637 114.546 349.976C114.593 349.97 114.635 349.965 114.682 349.96C120.648 349.37 126.549 348.241 132.312 346.586C135.307 345.711 138.218 344.569 141.01 343.176C141.668 342.841 142.301 342.49 142.923 342.129H117.949C117.602 342.129 117.27 341.991 117.025 341.746C116.78 341.501 116.642 341.168 116.642 340.822V339.791C116.642 339.444 116.78 339.112 117.025 338.867C117.27 338.621 117.602 338.484 117.949 338.484H135.072V305.446C135.073 304.429 135.477 303.455 136.195 302.736C136.914 302.018 137.887 301.613 138.903 301.612H152.833C152.712 301.266 152.592 300.916 152.462 300.566C151.155 296.947 149.606 293.42 147.825 290.01C145.386 285.274 142.483 280.792 139.159 276.629C136.845 273.729 134.246 271.067 131.403 268.684C126.16 264.353 120.452 261.674 114.661 261.674C93.3038 261.674 78.9246 298.107 78.9246 319.48Z" fill="#2F2E41"/>
<path d="M114.03 239.749L114.003 238.769C115.824 238.719 117.43 238.604 118.637 237.722C118.979 237.458 119.26 237.123 119.461 236.74C119.662 236.357 119.778 235.936 119.802 235.504C119.823 235.24 119.784 234.975 119.686 234.729C119.588 234.483 119.435 234.263 119.238 234.086C118.437 233.409 117.148 233.628 116.209 234.059L115.399 234.431L116.952 223.07L117.922 223.203L116.601 232.867C117.142 232.666 117.724 232.604 118.295 232.686C118.866 232.768 119.408 232.992 119.87 233.338C120.181 233.609 120.425 233.949 120.583 234.331C120.741 234.713 120.809 235.126 120.781 235.538C120.752 236.119 120.597 236.686 120.326 237.199C120.056 237.713 119.676 238.162 119.214 238.513C117.664 239.647 115.649 239.704 114.03 239.749Z" fill="#2F2E41"/>
<path d="M127.992 224.037H122.719V225.016H127.992V224.037Z" fill="#2F2E41"/>
<path d="M111.348 224.037H106.076V225.016H111.348V224.037Z" fill="#2F2E41"/>
<path d="M93.6723 222.828C95.7098 219.759 99.295 218.458 102.83 218.141C106.81 217.785 110.655 218.553 114.54 219.299C118.816 220.12 123.341 220.889 127.649 219.85C129.555 219.409 131.336 218.541 132.858 217.31C134.38 216.08 135.603 214.52 136.434 212.748C138.012 209.291 138.352 205.396 137.397 201.717C136.271 197.811 133.986 194.339 130.843 191.762C124.643 186.456 116.252 184.071 108.181 184.295C100.141 184.503 92.3704 187.237 85.9699 192.111C79.5587 197.161 75.0471 204.236 73.1717 212.182C71.2105 220.063 71.8494 228.367 74.9928 235.855C76.7589 239.955 79.3131 243.651 81.284 247.648C83.1191 251.369 84.5323 255.696 83.3905 259.846C82.8885 261.698 81.9243 263.391 80.5885 264.767C79.2527 266.143 77.5892 267.157 75.7544 267.713C74.0743 268.154 72.2965 268.037 70.6884 267.38C69.0802 266.723 67.7287 265.561 66.8372 264.07C64.9912 261.157 64.947 257.341 67.7187 254.989C68.4175 254.386 69.2315 253.932 70.1113 253.654C70.991 253.376 71.9181 253.28 72.8362 253.371C73.7543 253.463 74.6441 253.741 75.4516 254.187C76.2591 254.634 76.9673 255.24 77.5334 255.969C78.6578 257.431 79.1611 259.277 78.9342 261.108C78.7976 262.033 80.2125 262.432 80.3503 261.498C80.681 259.562 80.3142 257.572 79.3153 255.881C78.3163 254.191 76.7501 252.91 74.8956 252.267C73.0412 251.625 71.0189 251.662 69.1892 252.372C67.3595 253.082 65.8412 254.419 64.9047 256.145C63.2332 259.29 64.1351 263.084 66.2568 265.772C67.3516 267.204 68.8353 268.29 70.5306 268.9C72.2259 269.51 74.061 269.618 75.8163 269.212C79.6784 268.319 82.8379 265.247 84.3237 261.638C85.9779 257.619 85.22 253.134 83.6075 249.234C81.8644 245.019 79.2759 241.238 77.2289 237.176C75.3754 233.504 74.1959 229.53 73.7467 225.442C72.8475 217.232 74.7095 208.956 79.0379 201.924C83.4498 195.001 90.1838 189.879 98.0302 187.479C105.82 184.974 114.229 185.197 121.876 188.11C129.338 191.052 136.543 197.464 136.456 206.076C136.419 209.755 135.055 213.507 132.239 215.96C128.874 218.893 124.189 219.143 119.959 218.686C115.702 218.225 111.568 216.981 107.293 216.664C103.574 216.388 99.5627 216.675 96.2425 218.523C94.6963 219.386 93.38 220.608 92.4043 222.087C91.8799 222.877 93.1512 223.613 93.6723 222.828Z" fill="#2F2E41"/>
<path d="M97.841 286.997C97.8827 287.092 97.9297 287.184 97.9818 287.274C98.0344 287.368 98.092 287.459 98.1544 287.546L109.612 304.049L110.5 305.331L119.846 318.784L128.862 331.772L132.511 337.035C132.609 337.178 132.719 337.313 132.84 337.437C133.404 338.031 134.163 338.403 134.978 338.484H135.072V316.038L134.026 314.532L122.303 297.647L109.711 279.512C109.193 278.766 108.399 278.256 107.506 278.094C106.612 277.932 105.691 278.132 104.944 278.648L101.081 281.332L99.0063 282.776C98.3502 283.232 97.8745 283.905 97.6617 284.676C97.4489 285.447 97.5123 286.268 97.841 286.997Z" fill="#6C63FF"/>
<path d="M96.048 286.594L96.5653 287.635L96.5706 287.64L96.7118 287.917L105.111 304.604C105.585 305.38 106.346 305.936 107.229 306.152C108.111 306.368 109.043 306.225 109.821 305.754L110.364 305.414L110.5 305.331L121.33 298.531C121.717 298.296 122.053 297.988 122.32 297.623C122.587 297.258 122.779 296.844 122.885 296.404C122.991 295.964 123.008 295.508 122.937 295.062C122.866 294.615 122.707 294.187 122.47 293.802L110.574 277.66C109.407 276.078 107.733 274.946 105.831 274.455C103.929 273.963 101.916 274.142 100.13 274.961C99.7272 275.143 99.3392 275.356 98.9697 275.599C97.2212 276.755 95.9577 278.513 95.4191 280.54C94.8805 282.567 95.1043 284.721 96.048 286.594Z" fill="#2F2E41"/>
<path d="M157.73 342.129V381.512C157.732 382.42 158.093 383.291 158.735 383.933C159.376 384.576 160.246 384.937 161.154 384.938H168.383C169.29 384.937 170.16 384.575 170.802 383.933C171.444 383.291 171.805 382.42 171.806 381.512V342.129H157.73Z" fill="#6C63FF"/>
<path d="M115.596 339.791V340.822C115.597 341.366 115.786 341.894 116.131 342.315C116.476 342.737 116.955 343.026 117.489 343.134C117.562 343.144 117.635 343.16 117.708 343.165C117.786 343.17 117.865 343.176 117.949 343.176H198.526C199.82 343.175 201.061 342.661 201.976 341.746C202.891 340.831 203.406 339.59 203.408 338.295V305.446C203.406 304.151 202.891 302.91 201.976 301.995C201.061 301.08 199.82 300.566 198.526 300.566H138.903C137.61 300.567 136.37 301.082 135.456 301.996C134.542 302.911 134.028 304.152 134.026 305.446V337.437H117.949C117.325 337.437 116.726 337.685 116.285 338.127C115.844 338.568 115.596 339.167 115.596 339.791Z" fill="white"/>
<path d="M115.596 339.791V340.822C115.597 341.366 115.786 341.894 116.131 342.315C116.476 342.737 116.955 343.026 117.489 343.134C117.562 343.144 117.635 343.16 117.708 343.165C117.786 343.17 117.865 343.176 117.949 343.176H198.526C199.82 343.175 201.061 342.661 201.976 341.746C202.891 340.831 203.406 339.59 203.408 338.295V305.446C203.406 304.151 202.891 302.91 201.976 301.995C201.061 301.08 199.82 300.566 198.526 300.566H138.903C137.61 300.567 136.37 301.082 135.456 301.996C134.542 302.911 134.028 304.152 134.026 305.446V337.437H117.949C117.325 337.437 116.726 337.685 116.285 338.127C115.844 338.568 115.596 339.167 115.596 339.791ZM116.642 340.822V339.791C116.642 339.444 116.78 339.112 117.025 338.867C117.27 338.622 117.602 338.484 117.949 338.484H135.072V305.446C135.073 304.429 135.477 303.455 136.195 302.736C136.914 302.018 137.887 301.613 138.903 301.612H198.526C199.543 301.612 200.518 302.016 201.237 302.735C201.956 303.454 202.361 304.429 202.363 305.446V338.295C202.361 339.312 201.956 340.287 201.237 341.006C200.518 341.725 199.543 342.129 198.526 342.129H117.949C117.602 342.129 117.27 341.991 117.025 341.746C116.78 341.501 116.642 341.168 116.642 340.822Z" fill="#3F3D56"/>
<path d="M168.717 325.894C170.937 325.894 172.736 324.093 172.736 321.871C172.736 319.649 170.937 317.849 168.717 317.849C166.497 317.849 164.697 319.649 164.697 321.871C164.697 324.093 166.497 325.894 168.717 325.894Z" fill="#6C63FF"/>
<path d="M135.088 337.992H134.042V342.7H135.088V337.992Z" fill="#3F3D56"/>
<path d="M559.356 20.6746H281.211C281.04 20.6746 280.876 20.6067 280.755 20.4859C280.634 20.3651 280.567 20.2012 280.567 20.0303C280.567 19.8594 280.634 19.6955 280.755 19.5747C280.876 19.4538 281.04 19.386 281.211 19.386H559.356C559.527 19.386 559.691 19.4538 559.812 19.5747C559.932 19.6955 560 19.8594 560 20.0303C560 20.2012 559.932 20.3651 559.812 20.4859C559.691 20.6067 559.527 20.6746 559.356 20.6746Z" fill="#CACACA"/>
<path d="M305.666 11.6539C308.882 11.6539 311.489 9.04508 311.489 5.82695C311.489 2.60881 308.882 0 305.666 0C302.451 0 299.844 2.60881 299.844 5.82695C299.844 9.04508 302.451 11.6539 305.666 11.6539Z" fill="#3F3D56"/>
<path d="M325.781 11.6539C328.996 11.6539 331.603 9.04508 331.603 5.82695C331.603 2.60881 328.996 0 325.781 0C322.565 0 319.958 2.60881 319.958 5.82695C319.958 9.04508 322.565 11.6539 325.781 11.6539Z" fill="#3F3D56"/>
<path d="M345.895 11.6539C349.111 11.6539 351.718 9.04508 351.718 5.82695C351.718 2.60881 349.111 0 345.895 0C342.679 0 340.073 2.60881 340.073 5.82695C340.073 9.04508 342.679 11.6539 345.895 11.6539Z" fill="#3F3D56"/>
<path d="M334.221 120.02C327.455 120.02 320.841 118.012 315.215 114.25C309.589 110.488 305.204 105.141 302.614 98.8855C300.025 92.6296 299.348 85.7458 300.668 79.1045C301.988 72.4633 305.246 66.3629 310.03 61.5748C314.815 56.7867 320.911 53.5259 327.547 52.2049C334.183 50.8838 341.062 51.5618 347.313 54.1531C353.564 56.7443 358.907 61.1325 362.667 66.7626C366.426 72.3928 368.432 79.0121 368.432 85.7835C368.422 94.8604 364.814 103.563 358.401 109.981C351.987 116.4 343.292 120.01 334.221 120.02ZM334.221 52.8357C327.71 52.8357 321.344 54.768 315.93 58.3884C310.516 62.0087 306.296 67.1545 303.804 73.1749C301.312 79.1954 300.66 85.8201 301.931 92.2114C303.201 98.6027 306.337 104.473 310.941 109.081C315.545 113.689 321.412 116.827 327.798 118.098C334.185 119.37 340.805 118.717 346.821 116.224C352.836 113.73 357.978 109.507 361.596 104.088C365.214 98.6701 367.145 92.3 367.144 85.7835C367.135 77.0482 363.663 68.6736 357.491 62.4969C351.318 56.3201 342.95 52.8457 334.221 52.8357Z" fill="#CACACA"/>
<path d="M332.315 291.677C341.102 291.677 348.225 284.549 348.225 275.756C348.225 266.963 341.102 259.835 332.315 259.835C323.529 259.835 316.406 266.963 316.406 275.756C316.406 284.549 323.529 291.677 332.315 291.677Z" fill="#E4E4E4"/>
<path d="M323.478 281.657L323.461 281.062C324.567 281.031 325.543 280.962 326.275 280.426C326.483 280.265 326.654 280.062 326.776 279.83C326.898 279.597 326.969 279.341 326.983 279.079C326.996 278.919 326.972 278.758 326.912 278.608C326.853 278.459 326.76 278.325 326.64 278.218C326.364 278.05 326.047 277.96 325.723 277.957C325.399 277.954 325.081 278.038 324.801 278.201L324.309 278.427L325.252 271.528L325.841 271.609L325.039 277.478C325.367 277.356 325.721 277.318 326.068 277.368C326.415 277.418 326.743 277.554 327.024 277.763C327.213 277.928 327.361 278.135 327.457 278.367C327.553 278.599 327.594 278.849 327.577 279.1C327.56 279.452 327.466 279.796 327.301 280.108C327.137 280.421 326.907 280.693 326.626 280.906C325.684 281.595 324.461 281.629 323.478 281.657Z" fill="#2F2E41"/>
<path d="M331.956 272.115H328.754V272.71H331.956V272.115Z" fill="#2F2E41"/>
<path d="M321.849 272.115H318.647V272.71H321.849V272.115Z" fill="#2F2E41"/>
<path d="M329.921 265.474C326.083 268.11 320.187 266.657 318.448 262.203C318.023 261.119 317.834 259.958 317.892 258.795C317.951 257.632 318.255 256.496 318.786 255.46C319.422 254.375 320.288 253.443 321.323 252.73C322.357 252.016 323.536 251.538 324.775 251.33C328.067 250.647 331.47 251.563 334.478 252.895C334.587 252.952 334.71 252.973 334.831 252.958C334.953 252.942 335.066 252.89 335.157 252.807C338.031 250.514 342.206 251.51 345.152 253.113C348.339 254.903 351.034 257.455 352.997 260.54C355 263.598 356.251 267.088 356.649 270.722C357.013 274.651 356.372 278.607 354.786 282.219C353.2 285.83 350.722 288.979 347.584 291.367C347.014 291.794 347.572 292.768 348.15 292.335C351.318 289.993 353.861 286.905 355.554 283.346C357.247 279.787 358.039 275.865 357.858 271.927C357.678 267.989 356.531 264.156 354.52 260.767C352.508 257.377 349.694 254.536 346.325 252.493C342.791 250.365 337.865 249.222 334.365 252.015L335.044 251.927C332.034 250.595 328.737 249.655 325.421 250.092C322.604 250.463 319.837 251.815 318.222 254.222C317.512 255.327 317.047 256.571 316.857 257.87C316.666 259.17 316.756 260.495 317.119 261.757C317.473 263.005 318.112 264.153 318.985 265.111C319.858 266.07 320.942 266.812 322.15 267.279C323.505 267.82 324.97 268.027 326.421 267.881C327.872 267.735 329.266 267.242 330.486 266.442C331.077 266.036 330.517 265.064 329.921 265.474Z" fill="#2F2E41"/>
<path d="M333.428 106.649C342.101 106.649 349.132 99.6128 349.132 90.9332C349.132 82.2535 342.101 75.2173 333.428 75.2173C324.755 75.2173 317.724 82.2535 317.724 90.9332C317.724 99.6128 324.755 106.649 333.428 106.649Z" fill="#E4E4E4"/>
<path d="M329.721 97.5304C328.703 97.5021 327.436 97.4668 326.46 96.7533C326.17 96.5321 325.931 96.25 325.761 95.9267C325.591 95.6035 325.493 95.2469 325.475 94.8819C325.457 94.6226 325.5 94.3626 325.599 94.1224C325.699 93.8822 325.852 93.6683 326.048 93.4973C326.339 93.2801 326.679 93.1392 327.038 93.0875C327.398 93.0357 327.764 93.0748 328.104 93.2011L327.273 87.1225L327.883 87.0389L328.86 94.185L328.351 93.951C328.061 93.7821 327.731 93.6945 327.396 93.6975C327.061 93.7005 326.732 93.7939 326.445 93.968C326.322 94.0794 326.225 94.2179 326.164 94.3726C326.102 94.5274 326.077 94.6942 326.091 94.8603C326.105 95.1319 326.179 95.3971 326.305 95.6379C326.432 95.8786 326.609 96.0893 326.824 96.2555C327.583 96.8108 328.593 96.8824 329.739 96.9144L329.721 97.5304Z" fill="#2F2E41"/>
<path d="M324.256 87.6468H320.939V88.2631H324.256V87.6468Z" fill="#2F2E41"/>
<path d="M334.725 87.6468H331.408V88.2631H334.725V87.6468Z" fill="#2F2E41"/>
<path d="M334.885 79.3159C332.977 81.813 329.948 83.4881 326.747 83.0915C325.261 82.9388 323.862 82.3199 322.75 81.3233C321.637 80.3267 320.868 79.0035 320.552 77.543C320.277 76.1037 320.351 74.6191 320.769 73.2146C321.187 71.81 321.936 70.5265 322.953 69.4723C325.111 67.2011 328.199 65.9793 331.256 65.5604C334.146 65.2201 337.076 65.4944 339.853 66.3655C342.63 67.2365 345.192 68.6845 347.371 70.6148C349.569 72.5074 351.324 74.8616 352.511 77.5098C353.654 80.1385 354.198 82.9887 354.104 85.8539C354.028 88.7036 353.376 91.5083 352.186 94.0984C350.996 96.6884 349.294 99.0101 347.181 100.923C346.65 101.388 346.094 101.824 345.516 102.228C345.028 102.571 344.566 101.769 345.05 101.43C347.202 99.8569 349.015 97.865 350.379 95.5739C351.743 93.2827 352.631 90.7395 352.989 88.0966C353.391 85.4482 353.212 82.744 352.465 80.1718C351.717 77.5995 350.42 75.2207 348.662 73.2005C346.887 71.1754 344.727 69.5245 342.308 68.3443C339.888 67.1642 337.258 66.4783 334.571 66.3269C329.167 66.0911 322.414 68.5054 321.403 74.5251C320.95 77.2233 321.957 80.0594 324.428 81.4102C325.736 82.0688 327.21 82.3238 328.663 82.1427C330.117 81.9617 331.483 81.3529 332.59 80.3934C333.147 79.9379 333.649 79.4197 334.087 78.8493C334.444 78.383 335.246 78.843 334.885 79.3159Z" fill="#2F2E41"/>
<path d="M334.221 210.334C327.455 210.334 320.841 208.326 315.215 204.564C309.589 200.802 305.204 195.455 302.614 189.199C300.025 182.943 299.348 176.06 300.668 169.418C301.988 162.777 305.246 156.677 310.03 151.889C314.815 147.1 320.911 143.84 327.547 142.519C334.183 141.198 341.062 141.876 347.313 144.467C353.564 147.058 358.907 151.446 362.667 157.076C366.426 162.707 368.432 169.326 368.432 176.097C368.422 185.174 364.814 193.876 358.401 200.295C351.987 206.713 343.292 210.324 334.221 210.334ZM334.221 143.149C327.71 143.149 321.344 145.082 315.93 148.702C310.516 152.322 306.296 157.468 303.804 163.489C301.312 169.509 300.66 176.134 301.931 182.525C303.201 188.916 306.337 194.787 310.941 199.395C315.545 204.003 321.412 207.141 327.798 208.412C334.185 209.683 340.805 209.031 346.821 206.537C352.836 204.043 357.978 199.82 361.596 194.402C365.214 188.984 367.145 182.614 367.144 176.097C367.135 167.362 363.663 158.987 357.491 152.811C351.318 146.634 342.95 143.159 334.221 143.149Z" fill="#CACACA"/>
<path d="M334.221 306.705C327.455 306.705 320.841 304.697 315.215 300.935C309.589 297.173 305.204 291.826 302.614 285.57C300.025 279.314 299.348 272.43 300.668 265.789C301.988 259.148 305.246 253.048 310.03 248.259C314.815 243.471 320.911 240.211 327.547 238.89C334.183 237.569 341.062 238.247 347.313 240.838C353.565 243.429 358.908 247.817 362.667 253.448C366.426 259.078 368.432 265.697 368.432 272.469C368.422 281.545 364.814 290.248 358.401 296.666C351.987 303.084 343.292 306.695 334.221 306.705ZM334.221 239.52C327.71 239.52 321.344 241.453 315.93 245.073C310.516 248.693 306.296 253.839 303.804 259.86C301.312 265.88 300.66 272.505 301.931 278.896C303.201 285.287 306.337 291.158 310.941 295.766C315.545 300.374 321.412 303.512 327.798 304.783C334.185 306.055 340.804 305.402 346.82 302.908C352.836 300.415 357.978 296.192 361.596 290.773C365.214 285.355 367.144 278.985 367.145 272.469C367.135 263.733 363.663 255.359 357.491 249.182C351.319 243.005 342.95 239.53 334.221 239.52Z" fill="#CACACA"/>
<path d="M331.893 195.628C340.866 195.628 348.14 188.349 348.14 179.369C348.14 170.389 340.866 163.11 331.893 163.11C322.92 163.11 315.646 170.389 315.646 179.369C315.646 188.349 322.92 195.628 331.893 195.628Z" fill="#E4E4E4"/>
<path d="M326.486 186.194C325.433 186.165 324.122 186.129 323.112 185.39C322.812 185.162 322.565 184.87 322.389 184.535C322.212 184.201 322.112 183.832 322.093 183.454C322.075 183.186 322.119 182.917 322.221 182.669C322.324 182.42 322.483 182.199 322.686 182.022C322.986 181.797 323.339 181.651 323.71 181.598C324.082 181.544 324.461 181.585 324.813 181.715L323.953 175.427L324.584 175.34L325.595 182.733L325.068 182.491C324.768 182.317 324.427 182.226 324.08 182.229C323.733 182.232 323.393 182.329 323.097 182.509C322.969 182.624 322.869 182.767 322.805 182.927C322.742 183.088 322.716 183.26 322.73 183.432C322.745 183.713 322.821 183.987 322.952 184.236C323.083 184.486 323.266 184.703 323.488 184.875C324.274 185.45 325.319 185.524 326.504 185.557L326.486 186.194Z" fill="#2F2E41"/>
<path d="M320.831 175.969H317.4V176.607H320.831V175.969Z" fill="#2F2E41"/>
<path d="M331.663 175.969H328.231V176.607H331.663V175.969Z" fill="#2F2E41"/>
<path d="M332.711 196.136L343.948 191.77C345.786 191.057 347.634 190.365 349.462 189.626C350.245 189.353 350.966 188.928 351.584 188.375C352.122 187.805 352.488 187.095 352.642 186.326C352.948 184.633 353.046 182.909 352.933 181.192C352.912 179.352 352.76 177.515 352.48 175.696C351.99 172.277 350.837 168.987 349.088 166.01C345.936 160.835 340.506 156.942 334.26 157.253C331.326 157.355 328.517 158.472 326.312 160.414C326.088 160.682 325.837 160.925 325.562 161.141C325.371 161.213 325.163 161.227 324.965 161.181C324.702 161.164 324.44 161.152 324.177 161.143C323.266 161.104 322.354 161.143 321.449 161.257C319.8 161.435 318.237 162.085 316.947 163.128C316.383 163.577 315.913 164.133 315.563 164.764C315.214 165.396 314.992 166.09 314.91 166.807C314.867 167.472 314.977 168.139 315.232 168.755C315.487 169.372 315.879 169.921 316.38 170.362C317.721 171.492 319.634 171.095 321.242 171.01L327.134 170.697L330.119 170.539C330.733 170.506 330.731 171.463 330.119 171.495L322.185 171.916C320.9 172.04 319.61 172.093 318.32 172.073C317.339 172.028 316.403 171.652 315.665 171.004C314.991 170.384 314.489 169.601 314.208 168.729C313.926 167.857 313.876 166.927 314.06 166.03C314.305 165.066 314.749 164.164 315.364 163.382C315.979 162.6 316.751 161.957 317.63 161.492C319.952 160.182 322.724 160.056 325.321 160.25L324.983 160.39C327.921 157.235 332.421 155.902 336.646 156.368C341.107 156.861 345.074 159.351 347.925 162.757C351.103 166.553 352.835 171.288 353.508 176.156C353.858 178.784 353.974 181.439 353.853 184.088C353.858 185.256 353.658 186.416 353.263 187.515C352.811 188.585 351.996 189.46 350.961 189.985C349.774 190.558 348.554 191.06 347.308 191.487L343.167 193.095L335.035 196.254L332.965 197.058C332.391 197.281 332.143 196.356 332.711 196.136Z" fill="#2F2E41"/>
<path d="M345.442 158.692C345.442 157.715 345.732 156.76 346.275 155.947C346.817 155.134 347.588 154.501 348.491 154.127C349.393 153.753 350.386 153.655 351.344 153.846C352.301 154.036 353.181 154.507 353.872 155.198C354.562 155.889 355.033 156.77 355.223 157.728C355.414 158.687 355.316 159.68 354.942 160.583C354.568 161.486 353.935 162.258 353.123 162.801C352.311 163.344 351.357 163.634 350.38 163.634C349.071 163.632 347.816 163.111 346.89 162.185C345.965 161.258 345.444 160.002 345.442 158.692ZM346.398 158.692C346.398 159.481 346.632 160.251 347.069 160.906C347.507 161.562 348.129 162.072 348.856 162.374C349.584 162.676 350.385 162.755 351.157 162.601C351.929 162.447 352.639 162.068 353.196 161.51C353.753 160.953 354.132 160.243 354.286 159.47C354.439 158.697 354.361 157.895 354.059 157.167C353.758 156.439 353.247 155.817 352.593 155.379C351.938 154.941 351.168 154.707 350.38 154.707C349.324 154.708 348.312 155.129 347.566 155.876C346.819 156.623 346.399 157.636 346.398 158.692Z" fill="#2F2E41"/>
<path d="M534.616 100.154H422.182C420.777 100.154 419.43 99.5958 418.437 98.6019C417.444 97.608 416.886 96.26 416.886 94.8544C416.886 93.4488 417.444 92.1008 418.437 91.1069C419.43 90.113 420.777 89.5546 422.182 89.5546H534.616C535.312 89.5546 536.001 89.6917 536.643 89.958C537.286 90.2244 537.869 90.6148 538.361 91.1069C538.853 91.599 539.243 92.1833 539.509 92.8263C539.775 93.4693 539.912 94.1584 539.912 94.8544C539.912 95.5504 539.775 96.2396 539.509 96.8826C539.243 97.5256 538.853 98.1098 538.361 98.6019C537.869 99.0941 537.286 99.4845 536.643 99.7508C536.001 100.017 535.312 100.154 534.616 100.154Z" fill="#E4E4E4"/>
<path d="M498.36 82.0127H422.182C420.777 82.0127 419.43 81.4543 418.437 80.4604C417.444 79.4665 416.886 78.1185 416.886 76.7129C416.886 75.3073 417.444 73.9592 418.437 72.9653C419.43 71.9714 420.777 71.4131 422.182 71.4131H498.36C499.056 71.4131 499.744 71.5501 500.387 71.8165C501.029 72.0828 501.613 72.4732 502.105 72.9653C502.597 73.4575 502.987 74.0417 503.253 74.6847C503.519 75.3277 503.656 76.0169 503.656 76.7129C503.656 77.4088 503.519 78.098 503.253 78.741C502.987 79.384 502.597 79.9682 502.105 80.4604C501.613 80.9525 501.029 81.3429 500.387 81.6092C499.744 81.8756 499.056 82.0127 498.36 82.0127Z" fill="#E4E4E4"/>
<path d="M534.616 190.468H422.182C420.777 190.468 419.43 189.909 418.437 188.916C417.444 187.922 416.886 186.574 416.886 185.168C416.886 183.762 417.444 182.414 418.437 181.42C419.43 180.427 420.777 179.868 422.182 179.868H534.616C536.021 179.868 537.368 180.427 538.361 181.42C539.354 182.414 539.912 183.762 539.912 185.168C539.912 186.574 539.354 187.922 538.361 188.916C537.368 189.909 536.021 190.468 534.616 190.468Z" fill="#E4E4E4"/>
<path d="M498.36 172.326H422.182C420.778 172.325 419.433 171.766 418.441 170.772C417.449 169.778 416.892 168.431 416.892 167.026C416.892 165.622 417.449 164.275 418.441 163.281C419.433 162.287 420.778 161.728 422.182 161.727H498.36C499.765 161.727 501.112 162.285 502.105 163.279C503.098 164.273 503.656 165.621 503.656 167.026C503.656 168.432 503.098 169.78 502.105 170.774C501.112 171.768 499.765 172.326 498.36 172.326Z" fill="#E4E4E4"/>
<path d="M534.616 286.839H422.182C420.777 286.839 419.43 286.281 418.437 285.287C417.444 284.293 416.886 282.945 416.886 281.539C416.886 280.134 417.444 278.786 418.437 277.792C419.43 276.798 420.777 276.239 422.182 276.239H534.616C536.021 276.239 537.368 276.798 538.361 277.792C539.354 278.786 539.912 280.134 539.912 281.539C539.912 282.945 539.354 284.293 538.361 285.287C537.368 286.281 536.021 286.839 534.616 286.839Z" fill="#E4E4E4"/>
<path d="M498.36 268.697H422.182C420.777 268.697 419.43 268.139 418.437 267.145C417.444 266.151 416.886 264.803 416.886 263.398C416.886 261.992 417.444 260.644 418.437 259.65C419.43 258.656 420.777 258.098 422.182 258.098H498.36C499.765 258.098 501.112 258.656 502.105 259.65C503.098 260.644 503.656 261.992 503.656 263.398C503.656 264.803 503.098 266.151 502.105 267.145C501.112 268.139 499.765 268.697 498.36 268.697Z" fill="#E4E4E4"/>
<path d="M245.953 404H0.643856C0.473095 404 0.309327 403.932 0.188581 403.811C0.0678341 403.69 0 403.527 0 403.356C0 403.185 0.0678341 403.021 0.188581 402.9C0.309327 402.779 0.473095 402.711 0.643856 402.711H245.953C246.124 402.711 246.287 402.779 246.408 402.9C246.529 403.021 246.597 403.185 246.597 403.356C246.597 403.527 246.529 403.69 246.408 403.811C246.287 403.932 246.124 404 245.953 404Z" fill="#3F3D56"/>
</g>
<defs>
<clipPath id="clip0_286_44414">
<rect width="560" height="404" fill="white"/>
</clipPath>
</defs>
</svg>
